<svg id="图层_1" data-name="图层 1" xmlns="http://www.w3.org/2000/svg" viewBox="0 0 1261 1280"><defs><style>.cls-1{font-size:72.97px;fill:#40220f;}.cls-1,.cls-10,.cls-11,.cls-2,.cls-9{font-family:AdobeSongStd-Light-GBpc-EUC-H, Adobe Song Std;}.cls-2{font-size:43.92px;}.cls-3{fill:#eaccae;}.cls-4{fill:#e0b286;}.cls-5{fill:#f5e5d7;}.cls-6{fill:#995f28;}.cls-7{fill:#d6985d;}.cls-8{fill:#cc7f35;}.cls-11,.cls-9{font-size:50.68px;}.cls-10{font-size:50.69px;}.cls-11{fill:#f7f8f8;}</style></defs><title>受罚人均礼金数额分布</title><text class="cls-1" transform="translate(47 64)">受罚人均礼金数额分布（单位：元）</text><text class="cls-2" transform="translate(0 1269)">（数据来源：中央纪委监察部网站； 数据采集时间：2017年8月） </text><path class="cls-3" d="M1720,1354l-431,92c-51-238,101-472,339-523a453,453,0,0,1,92-10Z" transform="translate(-1091 -683)"/><path class="cls-4" d="M1720,1354l-99,429c-172-40-295-165-332-338Z" transform="translate(-1091 -683)"/><path class="cls-5" d="M1720,1354V913c177,0,331,100,403,261Z" transform="translate(-1091 -683)"/><path class="cls-6" d="M1721,1354l403-179c59,132,53,266-17,393Z" transform="translate(-1091 -683)"/><path class="cls-7" d="M1720,1352l193,396c-94,46-191,57-292,33Z" transform="translate(-1091 -683)"/><path class="cls-8" d="M1721,1353l385,214c-47,84-106,140-192,182Z" transform="translate(-1091 -683)"/><text class="cls-9" transform="translate(394 473)">101-200</text><text class="cls-9" transform="translate(355 880)">201-300</text><text class="cls-10" transform="translate(736 473)">&lt; 100</text><text class="cls-11" transform="translate(897 708)">&gt; 500</text><text class="cls-11" transform="translate(586 1026)">301-400</text><text class="cls-11" transform="translate(768 880)">401-500</text></svg>