<svg id="图层_1" data-name="图层 1" xmlns="http://www.w3.org/2000/svg" viewBox="0 0 2615 1968"><defs><style>.cls-1,.cls-4{font-size:56.11px;}.cls-1,.cls-10,.cls-2,.cls-8,.cls-9{font-family:AdobeSongStd-Light-GBpc-EUC-H, Adobe Song Std;}.cls-2{font-size:90px;}.cls-2,.cls-9{fill:#231815;}.cls-3{font-size:72px;}.cls-5{fill:#fff;stroke-width:3px;}.cls-5,.cls-6{stroke:#231815;}.cls-5,.cls-6,.cls-7{stroke-miterlimit:10;}.cls-6{fill:none;stroke-width:2px;}.cls-7{fill:#956134;stroke:#956134;stroke-width:5px;opacity:0.6;}.cls-8,.cls-9{font-size:56.11px;}.cls-10{font-size:89.77px;}.cls-10,.cls-11{fill:#c30d23;}</style></defs><title>违规问题查处人数2</title><text class="cls-1" transform="translate(261 1954)"><tspan xml:space="preserve">（数据来源：中央纪委监察部网站；数据采集时间：2017年8月）             </tspan></text><text class="cls-2" transform="translate(718 79)">各项违规查处人数<tspan class="cls-3"><tspan x="0" y="86" xml:space="preserve">        </tspan><tspan class="cls-4" x="119" y="86">（截至2017年6月）</tspan></tspan></text><polygon class="cls-5" points="1048 385 527 636 399 1199 759 1651 1337 1651 1697 1199 1569 636 1048 385"/><polygon class="cls-5" points="1047 570 671 752 578 1159 838 1486 1256 1486 1517 1159 1424 752 1047 570"/><polygon class="cls-5" points="1047 751 815 863 757 1114 918 1316 1176 1316 1337 1114 1280 863 1047 751"/><polygon class="cls-5" points="1047 935 959 978 937 1074 998 1150 1096 1150 1158 1074 1136 978 1047 935"/><line class="cls-6" x1="1047" y1="1044" x2="1048" y2="385"/><polyline class="cls-6" points="1047 1044 529 636 1047 471 1352 807 1393 1125 1074 1102 950 1243 692 1128 527 636"/><line class="cls-6" x1="1047" y1="1044" x2="399" y2="1199"/><line class="cls-6" x1="1047" y1="1044" x2="759" y2="1651"/><line class="cls-6" x1="1047" y1="1044" x2="1337" y2="1651"/><line class="cls-6" x1="1047" y1="1044" x2="1697" y2="1199"/><line class="cls-6" x1="1047" y1="1044" x2="1568" y2="641"/><polyline class="cls-7" points="529 636 1047 471 1348 807 1393 1125 1074 1102 950 1243 692 1128 528 641"/><text class="cls-8" transform="translate(0 657)">违规配备使用公车</text><text class="cls-8" transform="translate(0 1241)">公款吃喝娱乐</text><text class="cls-8" transform="translate(767 327)">违规发放津补贴或福利</text><text class="cls-8" transform="translate(1654 657)">违规收送礼品礼金</text><text class="cls-8" transform="translate(1371 1726)">违规配置办公用房</text><text class="cls-8" transform="translate(492 1726)">公款旅游</text><text class="cls-9" transform="translate(1780 1231)">违规操办婚丧喜庆</text><text class="cls-10" transform="translate(2256 1232)">20,497</text><path class="cls-11" d="M3222,1414a5,5,0,0,0,0,2q0,29,0,59c0,3-2,6-4,6s-6-2-6-6,0-6,0-8,0-18,0-28,1-2-1-2-1,1-1,2c0,12,0,24,0,36s-2,6-5,6a5,5,0,0,1-6-5c0-2,0-3,0-5q0-28,0-55,0-1,0-2c-2,4-2,8-3,11a135,135,0,0,0,0,14c0,3-2,5-5,3a3,3,0,0,1-2-3c0-9-1-17,2-26a19,19,0,0,1,5-9,10,10,0,0,1,7-3h14c5,0,8,2,10,6s4,10,4,15a96,96,0,0,1,0,16c0,3-2,4-4,4s-3-2-3-4,0-14-1-21Z" transform="translate(-616 -243)"/><path class="cls-11" d="M3210,1400a10,10,0,1,1,10-9A9,9,0,0,1,3210,1400Z" transform="translate(-616 -243)"/></svg>