<svg id="图层_1" data-name="图层 1" xmlns="http://www.w3.org/2000/svg" viewBox="0 0 2737 2190"><defs><style>.cls-1{fill:#fff;stroke-width:3px;}.cls-1,.cls-2{stroke:#231815;}.cls-1,.cls-2,.cls-3{stroke-miterlimit:10;}.cls-2{fill:none;stroke-width:2px;}.cls-3{fill:#956134;stroke:#956134;stroke-width:5px;opacity:0.6;}.cls-4{font-size:65.06px;}.cls-4,.cls-5,.cls-6,.cls-7{font-family:AdobeSongStd-Light-GBpc-EUC-H, Adobe Song Std;}.cls-5{font-size:84px;fill:#231815;}.cls-6{font-size:135.54px;fill:#c30d23;}.cls-7{font-size:108px;fill:#40220f;}.cls-8{font-size:72px;}</style></defs><title>违规问题查处人数</title><polygon class="cls-1" points="1226 406 632 692 485 1335 896 1850 1556 1850 1967 1335 1820 692 1226 406"/><polygon class="cls-1" points="1225 617 796 824 689 1289 987 1662 1464 1662 1761 1289 1655 824 1225 617"/><polygon class="cls-1" points="1225 823 960 951 894 1238 1078 1468 1372 1468 1556 1238 1490 951 1225 823"/><polygon class="cls-1" points="1225 1034 1124 1082 1099 1191 1169 1279 1281 1279 1351 1191 1326 1082 1225 1034"/><line class="cls-2" x1="1224" y1="1158" x2="1226" y2="406"/><polyline class="cls-2" points="1224 1158 635 692 1225 504 1572 887 1619 1250 1256 1224 1115 1384 820 1253 632 692"/><line class="cls-2" x1="1224" y1="1158" x2="485" y2="1335"/><line class="cls-2" x1="1224" y1="1158" x2="896" y2="1850"/><line class="cls-2" x1="1224" y1="1158" x2="1556" y2="1850"/><line class="cls-2" x1="1224" y1="1158" x2="1967" y2="1335"/><line class="cls-2" x1="1224" y1="1158" x2="1819" y2="698"/><polyline class="cls-3" points="635 692 1225 504 1568 887 1619 1250 1256 1224 1115 1384 820 1253 633 698"/><text class="cls-4" transform="translate(5 699)">违规配备使用公车</text><text class="cls-4" transform="translate(0 1366)">公款吃喝娱乐</text><text class="cls-4" transform="translate(894 339)">违规发放津补贴或福利</text><text class="cls-4" transform="translate(1946 699)">违规收送礼品礼金</text><text class="cls-4" transform="translate(1619 1946)">违规配置办公用房</text><text class="cls-5" transform="translate(2065 1366)">违规操办婚丧喜庆</text><text class="cls-4" transform="translate(569 1946)">公款旅游</text><text class="cls-6" transform="translate(2278 1539)">20497</text><text class="cls-4" transform="translate(284 2174)"><tspan xml:space="preserve">（数据来源：中央纪委监察部网站；数据采集时间：2017年8月）             </tspan></text><text class="cls-7" transform="translate(861 95)">各项违规查处人数<tspan class="cls-8"><tspan x="0" y="86" xml:space="preserve">         （截至2017年6月）</tspan></tspan></text></svg>