<svg id="图层_12" data-name="图层 12" xmlns="http://www.w3.org/2000/svg" viewBox="0 0 595 401"><defs><style>.cls-1{fill:#b5b5b6;opacity:0.7;}.cls-2{fill:#546aa1;}.cls-3,.cls-4{fill:#fff;}.cls-4{font-size:34.35px;font-family:SourceHanSansHWSC-Regular-GBpc-EUC-H, Source Han Sans HW SC;}</style></defs><title>title</title><rect class="cls-1" width="595" height="396.85"/><rect class="cls-2" x="97" y="60" width="17" height="75.78"/><rect class="cls-2" x="97" y="44" width="29" height="16.65"/><rect class="cls-2" x="2273" y="176" width="17" height="75.78" transform="translate(2776 295) rotate(180)"/><rect class="cls-2" x="2262" y="251" width="29" height="16.65" transform="translate(2765 388) rotate(180)"/><path class="cls-2" d="M1944,176h11q-1,20-27,48h-2Q1942,205,1944,176Zm25,37h1q4,29,22,47-4,4-5,11v2h-1a73,73,0,0,1-10-17q-17,13-44,17,2-7-2-12h8q13-21,16-58h11q-2,32-25,58,21,0,34-7Q1969,238,1969,213Zm0-42h1q6,30,29,42-4,4-2,11v2h-2Q1972,211,1969,170Z" transform="translate(-1787 -132)"/><path class="cls-2" d="M2018,247V178h-5v-4h34v4h-4v62l5-4q2-2,1,1l-6,8v26q10-13,12-36h8q-2,20-17,37h-10V250a69,69,0,0,1-22,8,24,24,0,0,0,0-5,29,29,0,0,0-1-6Zm17-3V178h-10v19h7v4h-7v19h7v4h-7v22Zm42-12h-7v-7h-11v7h-7V172h7v4h11v-4h7Zm-18-52v42h11V180Zm9,55h2q3,18,13,24-4,5-2,12h-1Q2070,264,2069,235Z" transform="translate(-1787 -132)"/><path class="cls-2" d="M2126,208V171h9v40q3,38,31,49-2,3-2,12h-1q-25-14-28-51-1,24-35,51h-4q18-16,25-29T2126,208Z" transform="translate(-1787 -132)"/><path class="cls-2" d="M2194,250h-8V205h8v2h36v-3h8v34q0,9-16,15,8,6,24,8-4,6-2,11h0q-22-5-30-25-4,11-31,25h-5q25-14,27-24a57,57,0,0,0,2-11q1-5,1-21h9a50,50,0,0,0,0,6q0,15-1,22a21,21,0,0,0,5,7q9-6,9-12V212h-36Zm3-79v4h30v-4h8v30h-8v-4h-30v4h-8V171Zm0,22h30V180h-30Z" transform="translate(-1787 -132)"/><path class="cls-3" d="M1885,325l2-27h7l-2,27h6v-6h7v18q0,23-5,36l8,5v10l-10-11a197,197,0,0,1-17,21h-3q11-12,16-25l-5-4v6h-7l4-47h-7v-4Zm7,4-3,39,6,2,2-15a107,107,0,0,0,1-13V329Zm20-27h7v5q14-5,18-8l7,6h-9v15h12v4h-12q1,14,8,18l2-15h1v16h1v11l-5-2v47h-7v-5h-17v5h-7V354l-5,2q1-7,0-11h5Zm19,39h0q-8,7-15,11h2v3h17v-2h6q-12-7-13-27h-10v19Zm-12-20h9V307h-9Zm17,70V359h-17v13h13v4h-13v15Z" transform="translate(-1787 -132)"/><path class="cls-3" d="M1988,325h-23v-4h24v-3h10q-2,10-12,23l15,11a29,29,0,0,1-3,10h0l-7-10-6-10v59h-8V351l-12,12h-3Q1981,345,1988,325Zm-11-27h0l10,10-5,10h0A140,140,0,0,1,1977,298Zm32,1h8v86q-1,6,5,5h2q4,0,5-5l2-20h1v18h2v7q0,8-8,8h-7q-11,0-10-10Z" transform="translate(-1787 -132)"/><path class="cls-3" d="M2048,397v-3q6-5,6-10V364h8v13Q2064,389,2048,397Zm15-98h11l-2,8v3h45v4h-38v14h32v4h-32v12h32v4h-32v10h-9V313a156,156,0,0,1-17,20h-3Q2062,316,2064,299Zm4,92V362h8v26q-1,5,5,5h11q5,0,6-4l3-16h2v15h2q1,14-11,12h-16Q2067,401,2068,391Zm14-31h0l12,14a39,39,0,0,1-4,10h0Q2086,376,2082,360Zm22,1h0l16,20q-2,7-5,10h0Q2110,382,2104,361Z" transform="translate(-1787 -132)"/><path class="cls-3" d="M2160,301h12q-5,25-35,54h-3Q2159,329,2160,301Zm7,25h10q-3,31-24,62,19-2,33-10-4-16-4-39h1q8,38,22,47-3,3-4,12v2q-8-7-13-20-17,12-48,19a21,21,0,0,0-2-12h13Q2166,365,2167,326Z" transform="translate(-1787 -132)"/><path class="cls-3" d="M2228,335h9q1,27-12,39l-3,4h-3Q2229,366,2228,335Zm15,34V325h-17v-4h17V299h8v22h15v-5h8v73q0,10-13,12,0-2-3-1h-7q14-4,14-10V325h-15v40q0,22-25,36h-3Q2245,386,2243,369Zm35-39h2q2,25,11,28-4,10-2,17Q2277,371,2278,330Z" transform="translate(-1787 -132)"/><text class="cls-4" transform="translate(108 324)">24万违反八项规定的干部<tspan x="0" y="41">关于公与私的选择</tspan></text></svg>