<svg id="图层_12" data-name="图层 12" xmlns="http://www.w3.org/2000/svg" viewBox="0 0 397 339"><defs><style>.cls-1{fill:#546aa1;}.cls-2,.cls-3{fill:#fff;}.cls-3{font-size:32.15px;font-family:SourceHanSansHWSC-Regular-GBpc-EUC-H, Source Han Sans HW SC;}</style></defs><title>title2</title><rect class="cls-1" x="5" y="20" width="17" height="70.91"/><rect class="cls-1" x="5" y="5" width="28" height="15.58"/><rect class="cls-1" x="2266" y="187" width="17" height="70.91" transform="translate(2663 263) rotate(180)"/><rect class="cls-1" x="2255" y="258" width="28" height="15.58" transform="translate(2652 349) rotate(180)"/><path class="cls-1" d="M1950,187h10q-1,18-26,45h-2Q1947,215,1950,187Zm24,34h1q4,27,22,44-4,3-5,10v2h-1a68,68,0,0,1-9-16q-16,12-42,16,2-7-2-11h8q13-19,15-54h10q-2,30-24,54,20,0,33-7Q1973,246,1974,222Zm0-40h1q6,28,28,40-4,4-2,10v2h-2Q1976,220,1973,182Z" transform="translate(-1886 -182)"/><path class="cls-1" d="M2021,254V189h-5v-4h33v4h-4v58l5-4q2-2,1,1l-6,8v24q10-12,11-34h8q-2,19-17,35h-10V256a68,68,0,0,1-22,8,22,22,0,0,0,0-4,27,27,0,0,0-1-6Zm17-3V189h-10v18h7v4h-7v18h7v4h-7v20Zm41-11h-7v-6h-10v6h-7V183h7v4h10v-4h7Zm-18-49v39h10V191Zm9,51h2q3,17,13,23-4,5-2,12h-1Q2070,270,2070,242Z" transform="translate(-1886 -182)"/><path class="cls-1" d="M2125,217V183h9v37q3,35,30,46-2,3-2,11h-1q-24-13-27-47-1,22-34,48h-4q18-15,24-28T2125,217Z" transform="translate(-1886 -182)"/><path class="cls-1" d="M2190,257h-8V215h8v2h34v-3h8v32q0,9-15,14,8,6,23,7-4,6-2,10h0q-21-4-29-23-4,10-30,23h-4q24-13,26-22a52,52,0,0,0,2-10q1-5,1-20h9a46,46,0,0,0,0,6q0,14-1,21l5,7q9-5,8-11V221h-34Zm3-74v4h29v-4h8v28h-8v-4h-29v4h-8V183Zm0,20h29V191h-29Z" transform="translate(-1886 -182)"/><path class="cls-2" d="M1892,326l2-25h7l-2,25h6v-5h7v17q0,22-5,34l8,5v10l-9-10-16,20h-3q11-12,15-24l-5-4v5h-7l4-44h-6v-4Zm7,4-3,37,6,2,2-14a98,98,0,0,0,1-12V330Zm19-25h7v5q14-4,18-8l7,6h-9v14h12v4h-12q1,13,8,17l2-14h1v15h1v10l-5-2v44h-7v-5h-16v5h-7V353l-5,2q1-6,0-10h5Zm18,36h0a61,61,0,0,1-14,10h2v3h16v-2h6q-11-7-12-26h-9v18Zm-11-18h9V310h-9Zm16,66V359h-16v12h13v4h-13v14Z" transform="translate(-1886 -182)"/><path class="cls-2" d="M1991,327h-22v-4h23v-3h10q-2,9-11,22l14,10a26,26,0,0,1-3,9h0l-6-10-6-9v56h-8V351l-11,11h-3Q1985,345,1991,327Zm-10-25h0l10,9-4,9h0A129,129,0,0,1,1981,302Zm31,1h8v81q-1,5,5,5h2q4,0,4-5l2-19h1v17h2v7q0,8-8,8h-7q-11,0-10-10Z" transform="translate(-1886 -182)"/><path class="cls-2" d="M2050,394v-3q6-5,6-9V364h8v12Q2064,386,2050,394Zm15-92h10l-2,7v3h44v4h-37v13h30v4h-30v12h31v4h-31v9h-8V315a147,147,0,0,1-16,19h-3Q2063,318,2064,302Zm4,86V361h8v24q-1,5,5,5h10q5,0,6-3l3-15h2v14h2q1,13-11,12h-15Q2067,398,2068,388Zm13-29h0l12,13a36,36,0,0,1-4,9h0Q2086,374,2082,359Zm21,1h0l16,19q-2,7-4,9h0Q2109,380,2103,360Z" transform="translate(-1886 -182)"/><path class="cls-2" d="M2157,305h12q-4,23-34,51h-3Q2156,330,2157,305Zm7,23h10q-3,29-23,58,18-2,32-10-4-15-4-37h1q8,36,21,44-3,3-4,11v2q-8-6-12-18-16,11-46,17a19,19,0,0,0-2-11h13Q2163,364,2164,328Z" transform="translate(-1886 -182)"/><path class="cls-2" d="M2223,336h9q1,25-12,36l-3,3h-3Q2224,365,2223,336Zm14,32V326h-17v-4h17V302h8v20h14v-5h8v68q0,9-12,12,0-2-3-1h-6q14-4,14-10V326h-14v37q0,21-24,34h-3Q2239,383,2237,367Zm34-37h2q2,23,10,26-4,9-2,16Q2270,370,2271,331Z" transform="translate(-1886 -182)"/><text class="cls-3" transform="translate(16 267) scale(1.03 1)">24万违反八项规定的干部<tspan x="0" y="39">关于公与私的选择</tspan></text></svg>