<svg id="查处问题数" xmlns="http://www.w3.org/2000/svg" viewBox="0 0 2177 952"><defs><style>.cls-1{font-size:36px;}.cls-1,.cls-8{fill:#231815;font-family:AdobeSongStd-Light-GBpc-EUC-H, Adobe Song Std;}.cls-2{fill:#fff;stroke:#fff;}.cls-2,.cls-4,.cls-5,.cls-7{stroke-miterlimit:10;}.cls-3{fill:#898989;}.cls-4,.cls-5{fill:none;stroke:#898989;}.cls-5{stroke-dasharray:10.9 3.96;}.cls-6{fill:#b26c84;}.cls-7{fill:#3e3a39;stroke:#3e3a39;}.cls-8{font-size:60px;}</style></defs><title>各类问题查处数量</title><text class="cls-1" transform="translate(504 265)">0</text><text class="cls-1" transform="translate(718 265)">5000</text><text class="cls-1" transform="translate(943 265)">10000</text><text class="cls-1" transform="translate(1173 265)">15000</text><text class="cls-1" transform="translate(1403 265)">20000</text><text class="cls-1" transform="translate(1633 265)">25000</text><text class="cls-1" transform="translate(1864 265)">30000</text><text class="cls-1" transform="translate(2094 265)">35000</text><line class="cls-2" x1="507" y1="296" x2="507" y2="339"/><line class="cls-2" x1="739" y1="296" x2="739" y2="339"/><line class="cls-2" x1="971" y1="296" x2="971" y2="339"/><line class="cls-2" x1="1203" y1="296" x2="1203" y2="339"/><line class="cls-2" x1="1435" y1="296" x2="1435" y2="339"/><line class="cls-2" x1="1667" y1="296" x2="1667" y2="339"/><line class="cls-2" x1="1899" y1="296" x2="1899" y2="339"/><line class="cls-2" x1="2131" y1="296" x2="2131" y2="339"/><line class="cls-3" x1="507" y1="313" x2="507" y2="863"/><line class="cls-4" x1="507" y1="313" x2="507" y2="319"/><line class="cls-5" x1="507" y1="323" x2="507" y2="856"/><line class="cls-4" x1="507" y1="858" x2="507" y2="863"/><line class="cls-3" x1="971" y1="313" x2="971" y2="863"/><line class="cls-4" x1="971" y1="313" x2="971" y2="319"/><line class="cls-5" x1="971" y1="323" x2="971" y2="856"/><line class="cls-4" x1="971" y1="858" x2="971" y2="863"/><line class="cls-3" x1="739" y1="313" x2="739" y2="863"/><line class="cls-4" x1="739" y1="313" x2="739" y2="319"/><line class="cls-5" x1="739" y1="323" x2="739" y2="856"/><line class="cls-4" x1="739" y1="858" x2="739" y2="863"/><line class="cls-3" x1="1435" y1="313" x2="1435" y2="863"/><line class="cls-4" x1="1435" y1="313" x2="1435" y2="319"/><line class="cls-5" x1="1435" y1="323" x2="1435" y2="856"/><line class="cls-4" x1="1435" y1="858" x2="1435" y2="863"/><line class="cls-3" x1="1667" y1="313" x2="1667" y2="863"/><line class="cls-4" x1="1667" y1="313" x2="1667" y2="319"/><line class="cls-5" x1="1667" y1="323" x2="1667" y2="856"/><line class="cls-4" x1="1667" y1="858" x2="1667" y2="863"/><line class="cls-3" x1="1203" y1="313" x2="1203" y2="863"/><line class="cls-4" x1="1203" y1="313" x2="1203" y2="319"/><line class="cls-5" x1="1203" y1="323" x2="1203" y2="856"/><line class="cls-4" x1="1203" y1="858" x2="1203" y2="863"/><line class="cls-3" x1="2131" y1="313" x2="2131" y2="863"/><line class="cls-4" x1="2131" y1="313" x2="2131" y2="319"/><line class="cls-5" x1="2131" y1="323" x2="2131" y2="856"/><line class="cls-4" x1="2131" y1="858" x2="2131" y2="863"/><line class="cls-3" x1="1899" y1="313" x2="1899" y2="863"/><line class="cls-4" x1="1899" y1="313" x2="1899" y2="319"/><line class="cls-5" x1="1899" y1="323" x2="1899" y2="856"/><line class="cls-4" x1="1899" y1="858" x2="1899" y2="863"/><rect class="cls-6" x="507" y="567" width="812" height="42.52"/><rect class="cls-6" x="507" y="639" width="672" height="42.52"/><rect class="cls-6" x="507" y="710" width="341" height="42.52"/><rect class="cls-6" x="507" y="423" width="1044" height="42.52"/><rect class="cls-6" x="507" y="495" width="837" height="42.52"/><rect class="cls-6" x="507" y="352" width="1521" height="42.52"/><rect class="cls-6" x="507" y="782" width="120" height="42.52"/><text class="cls-1" transform="translate(403 384)">32788</text><text class="cls-1" transform="translate(420 743)">7359</text><text class="cls-1" transform="translate(420 815)">2583</text><text class="cls-1" transform="translate(403 599)">17499</text><text class="cls-1" transform="translate(403 671)">14488</text><text class="cls-1" transform="translate(403 528)">18049</text><text class="cls-1" transform="translate(403 456)">22508</text><text class="cls-1" transform="translate(11 384)">违规配备或使用公车</text><text class="cls-1" transform="translate(11 456)">违规发放津补贴或福利</text><text class="cls-1" transform="translate(11 528)">违规收送礼品礼金</text><text class="cls-1" transform="translate(11 599)">违规操办婚丧喜庆</text><text class="cls-1" transform="translate(11 671)">公款吃喝娱乐</text><text class="cls-1" transform="translate(11 743)">公款旅游</text><text class="cls-1" transform="translate(11 815)">超标准配置办公用房</text><line class="cls-7" y1="886" x2="2169" y2="886"/><line class="cls-7" y1="99" x2="2169" y2="99"/><text class="cls-8" transform="translate(10 53)">八项规定实施以来各类型问题的查处数量</text><text class="cls-1" transform="translate(18 157)">截止2017年6月30日</text><text class="cls-1" transform="translate(13 943)">数据来源：中央纪委监察部网站</text><text class="cls-1" transform="translate(1644 563)">除这几类问题外，还有提供或<tspan x="0" y="43">接受超标准接待、接受或用公</tspan><tspan x="0" y="86">款参与高消费娱乐健身活动、</tspan><tspan x="0" y="130">违规出入私人会所、领导干部</tspan><tspan x="61" y="173">住房等违规问题61014件。</tspan></text></svg>