<svg id="图层_10" data-name="图层 10" xmlns="http://www.w3.org/2000/svg" viewBox="0 0 1196 1571"><defs><style>.cls-1{fill:#a9a9a9;}.cls-2,.cls-5{font-size:48px;}.cls-2,.cls-7{fill:#3e3a39;}.cls-2,.cls-5,.cls-7,.cls-8{font-family:AdobeSongStd-Light-GBpc-EUC-H, Adobe Song Std;}.cls-3{fill:#eaa7a9;}.cls-4{fill:#b5b5b6;}.cls-5{fill:#595757;}.cls-6{fill:#eea822;}.cls-7,.cls-8{font-size:36px;}</style></defs><title>省份政策3</title><path class="cls-1" d="M1178,1512h8c5,2,8,0,11-4s7-6,13-8,6,1,9,6-1,21-7,31a8,8,0,0,0-1,5c0,2-1,5,2,6s4-1,5-2,2-4,5-3,1,3,1,5,6,7,11,7,6-5,8-1,4,9,1,14-12,18-16,29-2,4-2,6-3,12-10,15-14,6-9,16,0,3-1,3-9,4-10,9h-1c-10-1-11,8-15,14-3-6-6-4-9,1l-3,4c-2,3-3,5-9,2s-11-9-16-17c2,14-8,10-13,14s-5-2-7-3-8-6-13-2h-1c-6,2-26-13-27-19s0-6,3-9,3-7,2-10-5-2-8-2-16-7-26-6-3-3-1-5l6-4c5-3,8-7,8-13s-3-14-14-9l-8,2c-4,0-7-1-7-6s-4-11-13-9-5,2-6-2,0-6,3-7,14-7,22-3,23,1,33-8,13-6,17-13,5,0,6,2,15,4,23,6,2-1,3-2l2-4c3-5,12-1,14-10s10-7,17-9,8-6,14-2,2-1,2-3h0a2,2,0,0,0,3-2Z" transform="translate(-1016 -332)"/><text class="cls-2" transform="translate(88 1286)">广西</text><rect class="cls-3" x="290" y="1147" width="906" height="91.4" rx="12" ry="12"/><text class="cls-2" transform="translate(355 1210)">不得超过10桌/双方合办不得超过15桌</text><rect class="cls-4" x="290" y="1373" width="906" height="91.4" rx="12" ry="12"/><text class="cls-5" transform="translate(470 1440)">礼金限定在每人200元以内</text><rect class="cls-6" x="290" y="1259" width="906" height="91.4" rx="12" ry="12"/><text class="cls-5" transform="translate(309 1326)">婚礼用车不得超过7辆&amp;不含30万以上车辆</text><path class="cls-1" d="M1207,1349c-7,1-5,6-5,10s4,1,7,1,9,0,7,6-5,16,1,25-1,6-5,7-16,7-22,13a51,51,0,0,1-14,11c-5,2-13,0-18-4s-8-4-14,0a182,182,0,0,1-27,19c-3,2-9,2-12,0s-19-7-28,1-2-3-1-4,3-12-4-17-3-11-1-17,5-13,1-20-8-6-13-4-9,2-12-6-1-13,6-14,15-4,22-1,13,0,17-4,6-3,11-3,14-1,19-5,6-13-3-17-6-1-8-4-6-4-3-7,7-4,9-2,13,2,20,4,5-1,5-5,2-6,5-6,12-4,13-12v-3c2,0,2,1,2,2s1,8,5,9,5-3,7-6,3-3,5-3,3,3,3,5,5,11,5,18,2,3,4,3,4,1,5,4,6,6,10,1,2-4,4-4,2,4,3,6h0c-4,0-4,4-3,6s3,15-3,21Z" transform="translate(-1016 -332)"/><text class="cls-2" transform="translate(76 1060)">贵州</text><rect class="cls-3" x="290" y="987" width="906" height="91.4" rx="12" ry="12"/><text class="cls-2" transform="translate(355 1050)">不得超过15桌/双方合办不得超过30桌</text><path class="cls-4" d="M1077,475c-11-5-15-15-11-25a18,18,0,0,0,1-11c-1-4-4-5-7-4s-6-2-5-6h0c8-2,11-6,8-15s-1-8-2-12h0c5-1,3-5,2-8s-4-23,2-34a35,35,0,0,1,8-11c4-4,8-2,13-1s11-1,10-9,1-7,6-5l35,12c3,1,6,4,10,3h0c1,6,4,5,7,2l12-10c3,12,3,12,14,6s7-1,7,4,2,14,11,18,7,22,3,28-11,11-11,20,1,9,7,4c1,8,0,16,3,23s2,5,4,7,5,4,1,8-1,3,1,4,5,11-2,21-9,3-13,1-12-5-18,0-5,5-1,8l3,4c1,2,2,5,1,7s-4,0-6-2l-5-3c-9-6-10-6-12,5s-16,13-20,10l-2-2c0-7-1-11-9-11s-1-3,0-4l5-9c2-5,6-11,0-16s-1-5-1-8-5-9-10-5h-6c-5,0-9,0-10,6s-4,6-9,4-7-1-8,4h0c-2-1-3,0-3,2Z" transform="translate(-1016 -332)"/><text class="cls-2" transform="translate(79 103)">湖南</text><rect class="cls-3" x="290" y="53" width="906" height="91.4" rx="12" ry="12"/><text class="cls-2" transform="translate(355 116)">不得超过20桌/双方合办不得超过30桌</text><rect class="cls-6" x="290" y="377" width="906" height="91.4" rx="12" ry="12"/><text class="cls-5" transform="translate(516 440)">婚礼用车不得超过5辆</text><rect class="cls-3" x="290" y="266" width="906" height="91.4" rx="12" ry="12"/><text class="cls-2" transform="translate(355 327)">不得超过15桌/双方合办不得超过25桌</text><path class="cls-1" d="M1107,617c-5-4-1-8,0-11s5-5,9-4,19-4,23-12,0-5,4-5a7,7,0,0,1,6,5,55,55,0,0,1,2,9c1,6,2,12,9,13s12-1,16-7c5,5,8,11,17,7s3,5,6,6,1,4,0,5-4,5-5,9-4,2-6,3-6-2-7,1,3,4,5,5h2c5,3,5,6,0,8s-7,5-5,11,3,10-4,11h-1c-6,3-1,11-4,12s-7,3-7,9-3,14-12,15-4,1-4,3v3c-10-1-8,8-11,13s-5,10-13,3-1,2-1,3,1,4-2,5-3-1-5-2-9-7-11-13-8-16-22-16h-5c-6,0-10-6-6-10s5-9,5-14,1-7,4-10,4-8,6-12,10-13,3-22,3-5,6-7,9-9,8-16h0Z" transform="translate(-1016 -332)"/><text class="cls-2" transform="translate(72 357)">福建</text><text class="cls-7" transform="translate(43 446)">（泉州）</text><rect class="cls-3" x="290" y="734" width="906" height="91.4" rx="12" ry="12"/><text class="cls-2" transform="translate(601 797)">不得超过10桌</text><path class="cls-1" d="M1191,1138c-3-2-6-5-10-5h-5c-2,8-8,5-13,6s-5,2-2,5,0,4-1,5-14,2-17-3l-5-10c-1-2-3-4-6-3s-2,3-2,5,0,12,0,18,1,5-2,6-4-1-6-2l-6-4c2,12-10,13-14,19s-4,0-6,0-9-3-11,4a2,2,0,0,1-3,1c-6-6-8,0-13,3s-19,13-32,12-6,0-4,5,0,4-2,4-4,6-1,10l5,4c3,3,5,5,1,9s-10,4-12,1-10-16-7-27-1-14,3-20,2-5,5-5,10-2,10-8l2-2c8,1,8-5,6-10s0-6,3-8l8-4c6-3,9-7,9-14s5-17,10-24l9-14v-2c-7-11,4-19,5-29,6,1,9,4,14,7s6,3,9,1,1-5,0-8l-2-4c-1-2-4-5-1-8s6-3,9-2l9,4c2,1,4,2,6,1s7-2,9,3,4,3,6,1l5-3c2-1,3-3,5-1s0,4-1,5l-8,10c-3,3-4,6-1,10s5,2,9,1l24-9c3-1,5,1,8,3s8,3,10-3,1-2,2-3,22,1,25,10,8,17,17,22,3,2,3,4-3,2-4,3-15,5-18,14-7,6-11,10-7,4-13,2S1194,1135,1191,1138Z" transform="translate(-1016 -332)"/><text class="cls-2" transform="translate(65 792)">广东</text><text class="cls-7" transform="translate(47 898)">（廉江）</text><path class="cls-1" d="M1126,881l18,6c2,1,5,1,6-1s9-5,14-5,8,4,12,6,3,7-1,10,8,4,9,9,1,5-3,5h-6c-2,0-4,0-5,3s1,5,3,5,4,6,3,10-6,8,2,9,1,2,1,3-5,6-9,8-1-2-2-3-3-3-4-1-8,10-8,18-3,13-4,19-3,2-4,1-8-5-14-2-7-2-9-5-5-4-8,0-6,6-11,6-6-6-6-10-13-23-20-35-6-16,3-24,14-13,11-25,5,0,7-1,9-4,5-10,0-9,2-13,7-5,11-3,16,3,23-1,9-1,11,3-2,6-4,8S1135,876,1126,881Z" transform="translate(-1016 -332)"/><text class="cls-2" transform="translate(61 614)">浙江</text><rect class="cls-3" x="290" y="550" width="906" height="91.4" rx="12" ry="12"/><text class="cls-2" transform="translate(601 613)">不得超过20桌</text><text class="cls-8" transform="translate(800 1562)">数据来源：地方政府网站</text></svg>