<svg id="图层_10" data-name="图层 10" xmlns="http://www.w3.org/2000/svg" viewBox="0 0 1301 1462"><defs><style>.cls-1{fill:#a9a9a9;}.cls-2,.cls-5{font-size:48px;}.cls-2,.cls-7{fill:#3e3a39;}.cls-2,.cls-5,.cls-7{font-family:AdobeSongStd-Light-GBpc-EUC-H, Adobe Song Std;}.cls-3{fill:#eaa7a9;}.cls-4{fill:#eea822;}.cls-5{fill:#595757;}.cls-6{fill:#b5b5b6;}.cls-7{font-size:36px;}</style></defs><title>省份政策2</title><path class="cls-1" d="M742,788c8,10,9,11-3,17s-33,30-46,48c-3,4-4,7-1,11s2,6-4,7-20,7-31,3c5,5,11,5,16,4l6-2c12-4,18,1,19,13s-1,4-3,5l-9,6c-4,3-4,7-1,10s18,19,30,17,11,4,15,9,1,13-7,14h0c-1-4-3-6-7-8s-6-3-9,0-1,5,0,8,2,9-4,11-4,6-4,9,0,7-5,5-4-1-5,1,0,4,1,5,10,11,12,18,4,2,6,1,11,0,12,5,4,11-4,13-2,3-3,4-2,4-3,4-11,4-17,4-5-4-7-6-7-6-13-4-9,3-10-7-2-9-8-9H640c-17,1-33-2-48-10h-5v-4c-4-5-7-10-7-16s-4-10-10-11c-9-12-7-24,8-32s19-6,27-12,8-4,14-3a25,25,0,0,0,21-5c5-4,7-11,7-16s2-17,1-26,2-27,6-39,5-15-7-23-8-8-6-15,1-14,11-17,5-13,5-20-4-6-8-7l-6-3c-3-3-2-5,2-7s8-6,5-12-6-7-9-11-6-10-2-16,8-18,15-25,3,7,4,11,5,7,9,8,6-3,8-6,5-7,12-5,21-7,21-17-1-13,9-11l2-2c2-3,4-6,8-4s3,4,4,7,5,10,13,9-1,5-1,7,1,15,11,17h3c9,2,10,2,6,11s-1,8,4,10,17,3,20,13,6,2,8,5-6,9-8,15a24,24,0,0,1-26,17c-2,0-3-2-4-3s-11-14-12-24-5-10-13-5-4-8,1-12,1-7-2-7-14-6-21-8-10,0-10,5-4,8-8,11-7,5-4,10,0,7-4,10-6,4-5,8,5,7,9,7a25,25,0,0,1,13,4c2,1,6,3,8,2s5,1,5,5,4,17,17,19S740,786,742,788Z" transform="translate(-518 -329)"/><text class="cls-2" transform="translate(59 641)">河北</text><rect class="cls-3" x="395" y="348" width="906" height="91.4" rx="12" ry="12"/><text class="cls-2" transform="translate(460 411)">不得超过12桌/双方合办不得超过18桌</text><rect class="cls-4" x="395" y="462" width="906" height="91.4" rx="12" ry="12"/><text class="cls-5" transform="translate(607 529)">婚礼用车不得超过6辆</text><rect class="cls-6" x="395" y="576" width="906" height="91.4" rx="12" ry="12"/><text class="cls-5" transform="translate(522 643)">每桌费用(不含酒水)2000元以内</text><rect class="cls-3" x="395" y="1259" width="906" height="91.4" rx="12" ry="12"/><text class="cls-2" transform="translate(706 1322)">不得超过20桌</text><rect class="cls-4" x="395" y="1371" width="906" height="91.4" rx="12" ry="12"/><text class="cls-5" transform="translate(607 1438)">婚礼用车不得超过6辆</text><path class="cls-1" d="M653,1623l3-5c5-9,10-11,20-8s3,2,3,4,0,3,0,5c1,20,2,19,23,18,3,0,4-1,5-4s12-16,19-23,4,0,6,1,20,5,32,3,10,2,16,0-4,9-2,14-3,3-4,2-8,0-12,2-15,13-25,16l-2,2c6,6-3,7-4,10s-3,4-6,4-8,2-6,8-1,13-7,15-7,6-8,10-2,9-8,10-10,11-15,16-4,3-7,2-10-3-15,1-12,2-18,2-5-3-4-5-5-7-8-8-4,3-5,6-4,11-10,11-15-2-21-8l-2-4c-7-7-7-7,2-11s9-8,6-15-3-16-7-24,0-3,1-5c10-13,19-27,31-38s15-9,21-14,7-1,7,4Z" transform="translate(-518 -329)"/><text class="cls-2" transform="translate(91 1352)">山东</text><text class="cls-7" transform="translate(65 1446)">（聊城）</text><path class="cls-1" d="M653,1313c-5,0-7,4-10,7s-3,4-7,3-3-4-3-7,2-18,5-26-2-25-3-37-3-18,7-25,3-13-3-19-5-11,0-16,6-8,5-13,1-10,5-13,3-2,3-4,3-9,8-11a22,22,0,0,0,14-15l2-5c10,2,14-13,26-9s12-2,15-8,2-4,4-3,3,3,3,5-1,4-3,5-7,2-7,8,4,7,7,9,10,2,8,9,0,14-9,15h-2c-7,5-7,29,0,33l7,4c4,4,6,7,3,13s-9,20-13,29,4,10,6,14-3,16-3,25-10,19-18,18-19-1-28,7S659,1310,653,1313Z" transform="translate(-518 -329)"/><text class="cls-2" transform="translate(110 927)">山西</text><text class="cls-7" transform="translate(91 1028)">（吕梁）</text><rect class="cls-3" x="395" y="776" width="906" height="91.4" rx="12" ry="12"/><text class="cls-2" transform="translate(706 839)">不得超过15桌</text><rect class="cls-6" x="395" y="1109" width="906" height="91.4" rx="12" ry="12"/><text class="cls-5" transform="translate(623 1176)">礼金限定在200元以内</text><rect class="cls-6" x="395" y="998" width="906" height="91.4" rx="12" ry="12"/><text class="cls-5" transform="translate(546 1065)">每桌费用(含烟酒)1000元以内</text><rect class="cls-4" x="395" y="887" width="906" height="91.4" rx="12" ry="12"/><text class="cls-5" transform="translate(607 954)">婚礼用车不得超过8辆</text><path class="cls-1" d="M622,455c8-2,5-8,4-12s-1-27-2-40a39,39,0,0,0-12-25c-5-5-10-2-14,3a15,15,0,0,1-10,6c-5,1-8,4-11,7s-5,4-8,3-18-16-16-25,3-7-2-7-11-7-15,0-8,3-12,3-5-4-6-7,3-13,4-20,7-5,11-7,22-7,34,0,13,1,19,1a18,18,0,0,1,13,5c19,18,36,38,52,59,7,9,9,20,14,30s3,5,7,5c16-1,31,3,46,5s13,8,21,6h1c1,8,10,11,10,18s3,9,6,12,5,4,9,3l24-4c7-1,11-5,12-12s2-10,9-12,6-4,7-7a16,16,0,0,1,7-7c7-4,10-2,10,6a4,4,0,0,0,0,2c9,18,2,38,7,56s4,27-3,41-9,11-19,7-8-1-11,2l-9,9c-7,9-8,15,0,23s8,20,11,30,0,2-2,3-14-6-15-10-1-5-4-5-5,2-5,4-1,6-5,3-5-4-7,0-10,6-8,12,2,4-1,5-4,0-5-2-8-9-14-12-2-5-3-7-2-6-5-6-5,3-5,7,2,7-3,7-3-3-4-6-4-7-9-7h0c-1-4-2-6-6-4s-4,0-5-3-15-13-22-6-5,1-7-2-3-9-7-7-16,2-23,5-13,3-20-6-5-8-6-13-2-5-6-3l-8,3c-3,1-5,0-5-3s0-14-10-16-1-2-1-3-9-8-9-14,8-8,12-12,4-9,6-14,4-9,9-8,7,5,10,1a18,18,0,0,0,2-11c-1-9-2-17,2-26Z" transform="translate(-518 -329)"/><text class="cls-2" transform="translate(138 212)">黑龙江</text><rect class="cls-3" x="395" y="121" width="906" height="91.4" rx="12" ry="12"/><text class="cls-2" transform="translate(460 184)">不得超过10桌/双方合办不得超过20桌</text></svg>