<svg id="省份政策" xmlns="http://www.w3.org/2000/svg" viewBox="0 0 4202 1950"><defs><style>.cls-1,.cls-8{font-size:36px;}.cls-1,.cls-10,.cls-3,.cls-6,.cls-8{font-family:AdobeSongStd-Light-GBpc-EUC-H, Adobe Song Std;}.cls-2{fill:#a9a9a9;}.cls-3,.cls-6{font-size:48px;}.cls-10,.cls-3,.cls-8{fill:#3e3a39;}.cls-4{fill:#eaa7a9;}.cls-5{fill:#b5b5b6;}.cls-6{fill:#595757;}.cls-7{fill:#eea822;}.cls-9{fill:#aaa;}.cls-10{font-size:80px;}.cls-11{font-size:60px;}</style></defs><title>省份政策</title><text class="cls-1" transform="translate(3806 1941)">数据来源：地方政府网站</text><path class="cls-2" d="M3188,1568h8c5,2,8,0,11-4s7-6,13-8,6,1,9,6-1,21-7,31a8,8,0,0,0-1,5c0,2-1,5,2,6s4-1,5-2,2-4,5-3,1,3,1,5,6,7,11,7,6-5,8-1,4,9,1,14-12,18-16,29-2,4-2,6-3,12-10,15-14,6-9,16,0,3-1,3-9,4-10,9h-1c-10-1-11,8-15,14-3-6-6-4-9,1l-3,4c-2,3-3,5-9,2s-11-9-16-17c2,14-8,10-13,14s-5-2-7-3-8-6-13-2h-1c-6,2-26-13-27-19s0-6,3-9,3-7,2-10-5-2-8-2-16-7-26-6-3-3-1-5l6-4c5-3,8-7,8-13s-3-14-14-9l-8,2c-4,0-7-1-7-6s-4-11-13-9-5,2-6-2,0-6,3-7,14-7,22-3,23,1,33-8,13-6,17-13,5,0,6,2,15,4,23,6,2-1,3-2l2-4c3-5,12-1,14-10s10-7,17-9,8-6,14-2,2-1,2-3h0a2,2,0,0,0,3-2Z" transform="translate(-21 -3)"/><text class="cls-3" transform="translate(3093 1672)">广西</text><rect class="cls-4" x="3295" y="1533" width="906" height="91.4" rx="12" ry="12"/><text class="cls-3" transform="translate(3360 1596)">不得超过10桌/双方合办不得超过15桌</text><rect class="cls-5" x="3295" y="1759" width="906" height="91.4" rx="12" ry="12"/><text class="cls-6" transform="translate(3475 1825)">礼金限定在每人200元以内</text><rect class="cls-7" x="3295" y="1645" width="906" height="91.4" rx="12" ry="12"/><text class="cls-6" transform="translate(3314 1712)">婚礼用车不得超过7辆&amp;不含30万以上车辆</text><path class="cls-2" d="M3217,1405c-7,1-5,6-5,10s4,1,7,1,9,0,7,6-5,16,1,25-1,6-5,7-16,7-22,13a51,51,0,0,1-14,11c-5,2-13,0-18-4s-8-4-14,0a182,182,0,0,1-27,19c-3,2-9,2-12,0s-19-7-28,1-2-3-1-4,3-12-4-17-3-11-1-17,5-13,1-20-8-6-13-4-9,2-12-6-1-13,6-14,15-4,22-1,13,0,17-4,6-3,11-3,14-1,19-5,6-13-3-17-6-1-8-4-6-4-3-7,7-4,9-2,13,2,20,4,5-1,5-5,2-6,5-6,12-4,13-12v-3c2,0,2,1,2,2s1,8,5,9,5-3,7-6,3-3,5-3,3,3,3,5,5,11,5,18,2,3,4,3,4,1,5,4,6,6,10,1,2-4,4-4,2,4,3,6h0c-4,0-4,4-3,6s3,15-3,21Z" transform="translate(-21 -3)"/><text class="cls-3" transform="translate(3081 1446)">贵州</text><rect class="cls-4" x="3295" y="1372" width="906" height="91.4" rx="12" ry="12"/><text class="cls-3" transform="translate(3360 1435)">不得超过15桌/双方合办不得超过30桌</text><path class="cls-5" d="M3087,531c-11-5-15-15-11-25a18,18,0,0,0,1-11c-1-4-4-5-7-4s-6-2-5-6h0c8-2,11-6,8-15s-1-8-2-12h0c5-1,3-5,2-8s-4-23,2-34a35,35,0,0,1,8-11c4-4,8-2,13-1s11-1,10-9,1-7,6-5l35,12c3,1,6,4,10,3h0c1,6,4,5,7,2l12-10c3,12,3,12,14,6s7-1,7,4,2,14,11,18,7,22,3,28-11,11-11,20,1,9,7,4c1,8,0,16,3,23s2,5,4,7,5,4,1,8-1,3,1,4,5,11-2,21-9,3-13,1-12-5-18,0-5,5-1,8l3,4c1,2,2,5,1,7s-4,0-6-2l-5-3c-9-6-10-6-12,5s-16,13-20,10l-2-2c0-7-1-11-9-11s-1-3,0-4l5-9c2-5,6-11,0-16s-1-5-1-8-5-9-10-5h-6c-5,0-9,0-10,6s-4,6-9,4-7-1-8,4h0c-2-1-3,0-3,2Z" transform="translate(-21 -3)"/><text class="cls-3" transform="translate(3085 489)">湖南</text><rect class="cls-4" x="3295" y="439" width="906" height="91.4" rx="12" ry="12"/><text class="cls-3" transform="translate(3360 502)">不得超过20桌/双方合办不得超过30桌</text><rect class="cls-7" x="3295" y="763" width="906" height="91.4" rx="12" ry="12"/><text class="cls-6" transform="translate(3521 826)">婚礼用车不得超过5辆</text><rect class="cls-4" x="3295" y="652" width="906" height="91.4" rx="12" ry="12"/><text class="cls-3" transform="translate(3360 712)">不得超过15桌/双方合办不得超过25桌</text><path class="cls-2" d="M3117,673c-5-4-1-8,0-11s5-5,9-4,19-4,23-12,0-5,4-5a7,7,0,0,1,6,5,55,55,0,0,1,2,9c1,6,2,12,9,13s12-1,16-7c5,5,8,11,17,7s3,5,6,6,1,4,0,5-4,5-5,9-4,2-6,3-6-2-7,1,3,4,5,5h2c5,3,5,6,0,8s-7,5-5,11,3,10-4,11h-1c-6,3-1,11-4,12s-7,3-7,9-3,14-12,15-4,1-4,3v3c-10-1-8,8-11,13s-5,10-13,3-1,2-1,3,1,4-2,5-3-1-5-2-9-7-11-13-8-16-22-16h-5c-6,0-10-6-6-10s5-9,5-14,1-7,4-10,4-8,6-12,10-13,3-22,3-5,6-7,9-9,8-16h0Z" transform="translate(-21 -3)"/><text class="cls-3" transform="translate(3077 743)">福建</text><text class="cls-8" transform="translate(3048 831)">（泉州）</text><rect class="cls-4" x="3295" y="1120" width="906" height="91.4" rx="12" ry="12"/><text class="cls-3" transform="translate(3606 1183)">不得超过10桌</text><path class="cls-2" d="M3201,1194c-3-2-6-5-10-5h-5c-2,8-8,5-13,6s-5,2-2,5,0,4-1,5-14,2-17-3l-5-10c-1-2-3-4-6-3s-2,3-2,5,0,12,0,18,1,5-2,6-4-1-6-2l-6-4c2,12-10,13-14,19s-4,0-6,0-9-3-11,4a2,2,0,0,1-3,1c-6-6-8,0-13,3s-19,13-32,12-6,0-4,5,0,4-2,4-4,6-1,10l5,4c3,3,5,5,1,9s-10,4-12,1-10-16-7-27-1-14,3-20,2-5,5-5,10-2,10-8l2-2c8,1,8-5,6-10s0-6,3-8l8-4c6-3,9-7,9-14s5-17,10-24l9-14v-2c-7-11,4-19,5-29,6,1,9,4,14,7s6,3,9,1,1-5,0-8l-2-4c-1-2-4-5-1-8s6-3,9-2l9,4c2,1,4,2,6,1s7-2,9,3,4,3,6,1l5-3c2-1,3-3,5-1s0,4-1,5l-8,10c-3,3-4,6-1,10s5,2,9,1l24-9c3-1,5,1,8,3s8,3,10-3,1-2,2-3,22,1,25,10,8,17,17,22,3,2,3,4-3,2-4,3-15,5-18,14-7,6-11,10-7,4-13,2S3204,1191,3201,1194Z" transform="translate(-21 -3)"/><text class="cls-3" transform="translate(3071 1177)">广东</text><text class="cls-8" transform="translate(3053 1283)">（廉江）</text><path class="cls-2" d="M3137,937l18,6c2,1,5,1,6-1s9-5,14-5,8,4,12,6,3,7-1,10,8,4,9,9,1,5-3,5h-6c-2,0-4,0-5,3s1,5,3,5,4,6,3,10-6,8,2,9,1,2,1,3-5,6-9,8-1-2-2-3-3-3-4-1-8,10-8,18-3,13-4,19-3,2-4,1-8-5-14-2-7-2-9-5-5-4-8,0-6,6-11,6-6-6-6-10-13-23-20-35-6-16,3-24,14-13,11-25,5,0,7-1,9-4,5-10,0-9,2-13,7-5,11-3,16,3,23-1,9-1,11,3-2,6-4,8S3146,932,3137,937Z" transform="translate(-21 -3)"/><text class="cls-3" transform="translate(3066 999)">浙江</text><rect class="cls-4" x="3295" y="935" width="906" height="91.4" rx="12" ry="12"/><text class="cls-3" transform="translate(3606 998)">不得超过20桌</text><rect class="cls-4" x="624" y="811" width="906" height="91.4" rx="12" ry="12"/><text class="cls-3" transform="translate(946 872)">不得超过5桌</text><path class="cls-2" d="M557,1647c-3,7-9,10-17,7h-2c-7,1-16-4-21,4s0,17,4,24a24,24,0,0,0,10,11c2,1,4,3,3,6s-4,1-5,1-8,2-12,5-2,4,0,6,8,9,14,10,5,2,5,5-1,5-4,6-10,5-16,4-5-1-6-5-7-12-16-8-10,4-10-7-2-12-8-14-13,4-15,9-2,3-5,2l-7-3c-1,3,0,5,1,7s2,19-8,24-11,10-7,21,1,16-11,15-7,1-9,3l-9,10c-3-1-2-3-2-5s-2-8-9-4c0-9-3-17-8-24s-10-17-10-27-2-9-8-5-11,1-12-5-1-10-3-14-4-4-7-4-5,2-5,6-4,8-6,12-4,2-3-1-2-8-6-11v-3c2-10-2-20,3-30s3-8,0-12-2-7-2-11-1-19-6-28-2-14-3-21-1-6-3-8-9-11-11-19-8-9-13-13-5-7,1-10,5-3,3-7,4-4,4-8-2-9-3-14,2-12,10-10,8,3,13,2,4,2,5,4,2,15,11,19,7,10,10,15,2,4,5,4,17,3,22,11,4,3,7,3,2-3,2-4,4-4,7-4,11-2,9-11-2-7,4-5,4,0,5-2,6-6,11-4,15,0,12-12,6-17,12-18,3,2,4,4,10,14,20,15,13-1,13,8,2,3,3,4,9,8,6,15,2,6,6,7l13,5c6,3,9-2,12-5s5-5,9-1,15,7,24,2,6-3,8,2,6,12,14,7,4,4,7,3h0c0,1,1,2,2,2h0v2c1,3,3,1,5,1s10-2,16,3c-6,2-4,6-5,10s-11,20-18,28l-20,22Z" transform="translate(-21 -3)"/><text class="cls-3" transform="translate(364 1673)">四川</text><text class="cls-8" transform="translate(325 1841)">（遂宁）</text><rect class="cls-4" x="624" y="1552" width="906" height="91.4" rx="12" ry="12"/><text class="cls-3" transform="translate(712 1615)">不得超过30桌/婚丧以外不超过20桌</text><rect class="cls-5" x="624" y="1667" width="906" height="91.4" rx="12" ry="12"/><text class="cls-6" transform="translate(723 1734)">礼品礼金不超过本人月收入的10%</text><path class="cls-2" d="M568,589c-12,3-20,12-27,22s-9,13-19,11-12,8-10,16-3,16,2,24-1,4-4,5c-17,3-34,10-51,9s-14,3-21,6-3,2-3,4,1,11,1,16,8,9,12,14,7,11,1,18-6,10-3,17,2,9-6,8-20-7-31-6h-2c-10-9-24-10-35-16s-11-3-16,0-16,5-25,5-11,1-16,4-17,7-27,6-13-1-20,1-19,0-28-2-7-5-9-9-8-8-15-3a29,29,0,0,1-15,5c-13,0-26-1-38-7s-9-2-14,3-9,10-10,17-4,6-8,5l-17-2c-9-1-14-7-15-16s-1-11-1-16-4-12-11-14l-16-8c-6-2-7-5-1-9s2-1,1-3H61c-9,0-12-5-9-14h0c6-15-1-27-17-30l-4-2c-2-2-6-3-6-6s5-2,8-2,10-3,11-10,5-21,3-32-3-10-7-14-5-3-8,0-3,5-7,2-3-5-2-8,6-14,4-23,4-7,7-10,19-14,32-6,9,2,12-3,5-3,8-3,3,3,3,5-2,7,2,8,11,2,15-3,18-12,30-15a84,84,0,0,1,32-1c2,0,4,0,6-2s11-7,18-6,28-8,34-25c1-3,2-7,6-2s3,1,4-1,8-21,5-34,1-10,2-15,2-15-4-21-2-6,3-6c15,0,31-1,45,6,4,2,7,2,10-1s2-6,1-9-1-13,4-19l19-24c3-4,6-4,10-1a89,89,0,0,0,26,13c14,5,23,0,28-15,1-2,1-4,1-5,0-15,9-23,23-26s10-5,12-12,14-9,18-7,2,3,2,5c4,21,16,35,36,42,7,2,12,6,13,15s1,10,3,15c7,15,3,28-4,42s-7,15-3,24,4,6,10,6h22c22,2,41,10,54,30,3,4,7,5,10,4s8,3,8,8,3,8,5,11,16,25,12,41a25,25,0,0,0-1,9c1,8-3,10-10,11s-16,7-25,3-4,1-3,4Z" transform="translate(-21 -3)"/><text class="cls-3" transform="translate(241 624)">新疆</text><rect class="cls-4" x="624" y="448" width="906" height="91.4" rx="12" ry="12"/><text class="cls-3" transform="translate(934 511)">不得超过30桌</text><rect class="cls-7" x="624" y="568" width="906" height="91.4" rx="12" ry="12"/><text class="cls-6" transform="translate(836 635)">婚礼用车不得超过8辆</text><path class="cls-2" d="M643,1065c-6,3-8,7-6,13s-2,7-5,8-7,3-9-2a20,20,0,0,0-8-9c-3-2-6-1-8,0s-4,4-3,7v2c0,4,0,10-4,12s-7-2-10-4l-5-4c-11-14-29-12-43-4s-19,13-31,11-5,2-6,4c-8,17-24,18-40,18s-19-8-19-20a4,4,0,0,0,0-1v-4c-12,2-5-14-14-15s-22-7-33-12-20-6-29,8l-6,11c-2,2-3,7-7,3s-7-5-3-10h1c2-3,8-5,5-10s-8-4-13-4l-18,2c-9,0-18,1-25-7s-10-3-16-2-7,0-9-3-13-14-23-16-3-1-3-2-8-10-14-13-10-10-13-17-5-8-10-6-5,1-6-1c-7-15-23-21-32-35-1-2-4-4-4-7s-5-8-10-9-7,3-9,6-7,5-10,1-16-17-24-25-6-11-10-15-6-6-10-6-11-6-10-13a27,27,0,0,1,3-9c3-5,5-9,1-15s2-8,1-12c2,6,5,11,12,9s13-13,10-20l-3-6c-9-14-5-27,4-40s3-2,5-2h9c10,1,13,0,15-10s7-10,10-15,7,0,10,1c16,6,33,11,50,2s12-5,16,4,7,6,12,7,24,2,36,0,10,1,16,1,15-3,23-6,35-5,52-10,24,5,34,14,6,18,2,22-6,11-2,18a17,17,0,0,1,0,20c-11,15-2,26,7,38l9,10c3,3,6,4,10,2s10-5,17,5,9,8,14,11,28,14,44,16,13,3,18,1,19,2,24,11,9,11,11,18,8,7,13,8,9-1,10-7,2-5,5-5,3,2,3,4,13,5,14,0,12-12,6-21c7,6,17,8,18,19s2,4,3,5,11,14,10,24,2,11,4,16,6,15,3,23a8,8,0,0,0,0,6c7,11,1,20-6,28l-2,3Z" transform="translate(-21 -3)"/><text class="cls-3" transform="translate(264 957)">西藏</text><path class="cls-9" d="M444,1266c-1-13-12-9-19-13,11,1,20-8,31-7s4,0,4-2,6-14,6-22,3-20,12-28,9-1,12,1,6,6,3,11a32,32,0,0,0-5,19c0,6,2,10,9,9s9,3,8,9-2,10-2,15-3,6-7,4-11,0-12,7,0,14,0,20,2,5,5,6,6,6,6,11-3,7-8,7-9,7-8,14-5-1-6-3-9-10-16-13-4-5-2-9,4-10-3-13h0c1-2,0-3-2-3h0v-15c0-3-1-6-5-6Z" transform="translate(-21 -3)"/><text class="cls-3" transform="translate(396 1277)">宁夏</text><rect class="cls-4" x="624" y="1169" width="906" height="91.4" rx="12" ry="12"/><text class="cls-3" transform="translate(688 1232)">不得超过10桌/双方合办不得超过15桌</text><rect class="cls-5" x="624" y="1282" width="906" height="91.4" rx="12" ry="12"/><text class="cls-6" transform="translate(803 1349)">礼金限定在每人300元以内</text><rect class="cls-5" x="624" y="1395" width="906" height="91.4" rx="12" ry="12"/><text class="cls-6" transform="translate(874 1462)">彩礼不得高于5万元</text><path class="cls-2" d="M1840,849c8,10,9,11-3,17s-33,30-46,48c-3,4-4,7-1,11s2,6-4,7-20,7-31,3c5,5,11,5,16,4l6-2c12-4,18,1,19,13s-1,4-3,5l-9,6c-4,3-4,7-1,10s18,19,30,17,11,4,15,9,1,13-7,14h0c-1-4-3-6-7-8s-6-3-9,0-1,5,0,8,2,9-4,11-4,6-4,9,0,7-5,5-4-1-5,1,0,4,1,5,10,11,12,18,4,2,6,1,11,0,12,5,4,11-4,13-2,3-3,4-2,4-3,4-11,4-17,4-5-4-7-6-7-6-13-4-9,3-10-7-2-9-8-9h-15c-17,1-33-2-48-10h-5v-4c-4-5-7-10-7-16s-4-10-10-11c-9-12-7-24,8-32s19-6,27-12,8-4,14-3a25,25,0,0,0,21-5c5-4,7-11,7-16s2-17,1-26,2-27,6-39,5-15-7-23-8-8-6-15,1-14,11-17,5-13,5-20-4-6-8-7l-6-3c-3-3-2-5,2-7s8-6,5-12-6-7-9-11-6-10-2-16,8-18,15-25,3,7,4,11,5,7,9,8,6-3,8-6,5-7,12-5,21-7,21-17-1-13,9-11l2-2c2-3,4-6,8-4s3,4,4,7,5,10,13,9-1,5-1,7,1,15,11,17h3c9,2,10,2,6,11s-1,8,4,10,17,3,20,13,6,2,8,5-6,9-8,15a24,24,0,0,1-26,17c-2,0-3-2-4-3s-11-14-12-24-5-10-13-5-4-8,1-12,1-7-2-7-14-6-21-8-10,0-10,5-4,8-8,11-7,5-4,10,0,7-4,10-6,4-5,8,5,7,9,7a25,25,0,0,1,13,4c2,1,6,3,8,2s5,1,5,5,4,17,17,19S1838,847,1840,849Z" transform="translate(-21 -3)"/><text class="cls-3" transform="translate(1653 1029)">河北</text><rect class="cls-4" x="1989" y="736" width="906" height="91.4" rx="12" ry="12"/><text class="cls-3" transform="translate(2054 799)">不得超过12桌/双方合办不得超过18桌</text><rect class="cls-7" x="1989" y="850" width="906" height="91.4" rx="12" ry="12"/><text class="cls-6" transform="translate(2201 917)">婚礼用车不得超过6辆</text><rect class="cls-5" x="1989" y="964" width="906" height="91.4" rx="12" ry="12"/><text class="cls-6" transform="translate(2116 1030)">每桌费用(不含酒水)2000元以内</text><rect class="cls-4" x="1989" y="1647" width="906" height="91.4" rx="12" ry="12"/><text class="cls-3" transform="translate(2300 1710)">不得超过20桌</text><rect class="cls-7" x="1989" y="1759" width="906" height="91.4" rx="12" ry="12"/><text class="cls-6" transform="translate(2201 1825)">婚礼用车不得超过6辆</text><path class="cls-2" d="M1751,1684l3-5c5-9,10-11,20-8s3,2,3,4,0,3,0,5c1,20,2,19,23,18,3,0,4-1,5-4s12-16,19-23,4,0,6,1,20,5,32,3,10,2,16,0-4,9-2,14-3,3-4,2-8,0-12,2-15,13-25,16l-2,2c6,6-3,7-4,10s-3,4-6,4-8,2-6,8-1,13-7,15-7,6-8,10-2,9-8,10-10,11-15,16-4,3-7,2-10-3-15,1-12,2-18,2-5-3-4-5-5-7-8-8-4,3-5,6-4,11-10,11-15-2-21-8l-2-4c-7-7-7-7,2-11s9-8,6-15-3-16-7-24,0-3,1-5c10-13,19-27,31-38s15-9,21-14,7-1,7,4Z" transform="translate(-21 -3)"/><text class="cls-3" transform="translate(1686 1740)">山东</text><text class="cls-8" transform="translate(1659 1834)">（聊城）</text><path class="cls-2" d="M1751,1375c-5,0-7,4-10,7s-3,4-7,3-3-4-3-7,2-18,5-26-2-25-3-37-3-18,7-25,3-13-3-19-5-11,0-16,6-8,5-13,1-10,5-13,3-2,3-4,3-9,8-11a22,22,0,0,0,14-15l2-5c10,2,14-13,26-9s12-2,15-8,2-4,4-3,3,3,3,5-1,4-3,5-7,2-7,8,4,7,7,9,10,2,8,9,0,14-9,15h-2c-7,5-7,29,0,33l7,4c4,4,6,7,3,13s-9,20-13,29,4,10,6,14-3,16-3,25-10,19-18,18-19-1-28,7S1757,1371,1751,1375Z" transform="translate(-21 -3)"/><text class="cls-3" transform="translate(1704 1315)">山西</text><text class="cls-8" transform="translate(1685 1416)">（吕梁）</text><rect class="cls-4" x="1989" y="1164" width="906" height="91.4" rx="12" ry="12"/><text class="cls-3" transform="translate(2300 1227)">不得超过15桌</text><rect class="cls-5" x="1989" y="1497" width="906" height="91.4" rx="12" ry="12"/><text class="cls-6" transform="translate(2217 1564)">礼金限定在200元以内</text><rect class="cls-5" x="1989" y="1386" width="906" height="91.4" rx="12" ry="12"/><text class="cls-6" transform="translate(2140 1453)">每桌费用(含烟酒)1000元以内</text><rect class="cls-7" x="1989" y="1275" width="906" height="91.4" rx="12" ry="12"/><text class="cls-6" transform="translate(2201 1342)">婚礼用车不得超过8辆</text><path class="cls-2" d="M1720,516c8-2,5-8,4-12s-1-27-2-40a39,39,0,0,0-12-25c-5-5-10-2-14,3a15,15,0,0,1-10,6c-5,1-8,4-11,7s-5,4-8,3-18-16-16-25,3-7-2-7-11-7-15,0-8,3-12,3-5-4-6-7,3-13,4-20,7-5,11-7,22-7,34,0,13,1,19,1a18,18,0,0,1,13,5c19,18,36,38,52,59,7,9,9,20,14,30s3,5,7,5c16-1,31,3,46,5s13,8,21,6h1c1,8,10,11,10,18s3,9,6,12,5,4,9,3l24-4c7-1,11-5,12-12s2-10,9-12,6-4,7-7a16,16,0,0,1,7-7c7-4,10-2,10,6a4,4,0,0,0,0,2c9,18,2,38,7,56s4,27-3,41-9,11-19,7-8-1-11,2l-9,9c-7,9-8,15,0,23s8,20,11,30,0,2-2,3-14-6-15-10-1-5-4-5-5,2-5,4-1,6-5,3-5-4-7,0-10,6-8,12,2,4-1,5-4,0-5-2-8-9-14-12-2-5-3-7-2-6-5-6-5,3-5,7,2,7-3,7-3-3-4-6-4-7-9-7h0c-1-4-2-6-6-4s-4,0-5-3-15-13-22-6-5,1-7-2-3-9-7-7-16,2-23,5-13,3-20-6-5-8-6-13-2-5-6-3l-8,3c-3,1-5,0-5-3s0-14-10-16-1-2-1-3-9-8-9-14,8-8,12-12,4-9,6-14,4-9,9-8,7,5,10,1a18,18,0,0,0,2-11c-1-9-2-17,2-26Z" transform="translate(-21 -3)"/><text class="cls-3" transform="translate(1732 600)">黑龙江</text><rect class="cls-4" x="1989" y="509" width="906" height="91.4" rx="12" ry="12"/><text class="cls-3" transform="translate(2054 572)">不得超过10桌/双方合办不得超过20桌</text><text class="cls-10" transform="translate(1501 70)">违规操办婚丧喜庆事宜地方性政策<tspan class="cls-11"><tspan x="300" y="72">（八项规定实施以后）</tspan></tspan></text></svg>