<svg id="图层_9" data-name="图层 9" xmlns="http://www.w3.org/2000/svg" viewBox="0 0 1530 1807"><defs><style>.cls-1{fill:#eaa7a9;}.cls-2,.cls-6{font-size:48px;}.cls-2,.cls-4,.cls-9{fill:#3e3a39;}.cls-2,.cls-4,.cls-6,.cls-9{font-family:AdobeSongStd-Light-GBpc-EUC-H, Adobe Song Std;}.cls-3{fill:#a9a9a9;}.cls-4{font-size:36px;}.cls-5{fill:#b5b5b6;}.cls-6{fill:#595757;}.cls-7{fill:#eea822;}.cls-8{fill:#aaa;}.cls-9{font-size:72px;}</style></defs><title>省份政策1</title><rect class="cls-1" x="624" y="768" width="906" height="91.4" rx="12" ry="12"/><text class="cls-2" transform="translate(946 829)">不得超过5桌</text><path class="cls-3" d="M1029,1723c-3,7-9,10-17,7h-2c-7,1-16-4-21,4s0,17,4,24a24,24,0,0,0,10,11c2,1,4,3,3,6s-4,1-5,1-8,2-12,5-2,4,0,6,8,9,14,10,5,2,5,5-1,5-4,6-10,5-16,4-5-1-6-5-7-12-16-8-10,4-10-7-2-12-8-14-13,4-15,9-2,3-5,2l-7-3c-1,3,0,5,1,7s2,19-8,24-11,10-7,21,1,16-11,15-7,1-9,3l-9,10c-3-1-2-3-2-5s-2-8-9-4c0-9-3-17-8-24s-10-17-10-27-2-9-8-5-11,1-12-5-1-10-3-14-4-4-7-4-5,2-5,6-4,8-6,12-4,2-3-1-2-8-6-11v-3c2-10-2-20,3-30s3-8,0-12-2-7-2-11-1-19-6-28-2-14-3-21-1-6-3-8-9-11-11-19-8-9-13-13-5-7,1-10,5-3,3-7,4-4,4-8-2-9-3-14,2-12,10-10,8,3,13,2,4,2,5,4,2,15,11,19,7,10,10,15,2,4,5,4,17,3,22,11,4,3,7,3,2-3,2-4,4-4,7-4,11-2,9-11-2-7,4-5,4,0,5-2,6-6,11-4,15,0,12-12,6-17,12-18,3,2,4,4,10,14,20,15,13-1,13,8,2,3,3,4,9,8,6,15,2,6,6,7l13,5c6,3,9-2,12-5s5-5,9-1,15,7,24,2,6-3,8,2,6,12,14,7,4,4,7,3h0c0,1,1,2,2,2h0v2c1,3,3,1,5,1s10-2,16,3c-6,2-4,6-5,10s-11,20-18,28l-20,22Z" transform="translate(-493 -121)"/><text class="cls-2" transform="translate(364 1630)">四川</text><text class="cls-4" transform="translate(325 1798)">（遂宁）</text><rect class="cls-1" x="624" y="1510" width="906" height="91.4" rx="12" ry="12"/><text class="cls-2" transform="translate(712 1573)">不得超过30桌/婚丧以外不超过20桌</text><rect class="cls-5" x="624" y="1624" width="906" height="91.4" rx="12" ry="12"/><text class="cls-6" transform="translate(723 1691)">礼品礼金不超过本人月收入的10%</text><path class="cls-3" d="M1040,665c-12,3-20,12-27,22s-9,13-19,11-12,8-10,16-3,16,2,24-1,4-4,5c-17,3-34,10-51,9s-14,3-21,6-3,2-3,4,1,11,1,16,8,9,12,14,7,11,1,18-6,10-3,17,2,9-6,8-20-7-31-6h-2c-10-9-24-10-35-16s-11-3-16,0-16,5-25,5-11,1-16,4-17,7-27,6-13-1-20,1-19,0-28-2-7-5-9-9-8-8-15-3a29,29,0,0,1-15,5c-13,0-26-1-38-7s-9-2-14,3-9,10-10,17-4,6-8,5l-17-2c-9-1-14-7-15-16s-1-11-1-16-4-12-11-14l-16-8c-6-2-7-5-1-9s2-1,1-3H533c-9,0-12-5-9-14h0c6-15-1-27-17-30l-4-2c-2-2-6-3-6-6s5-2,8-2,10-3,11-10,5-21,3-32-3-10-7-14-5-3-8,0-3,5-7,2-3-5-2-8,6-14,4-23,4-7,7-10,19-14,32-6,9,2,12-3,5-3,8-3,3,3,3,5-2,7,2,8,11,2,15-3,18-12,30-15a84,84,0,0,1,32-1c2,0,4,0,6-2s11-7,18-6,28-8,34-25c1-3,2-7,6-2s3,1,4-1,8-21,5-34,1-10,2-15,2-15-4-21-2-6,3-6c15,0,31-1,45,6,4,2,7,2,10-1s2-6,1-9-1-13,4-19l19-24c3-4,6-4,10-1a89,89,0,0,0,26,13c14,5,23,0,28-15,1-2,1-4,1-5,0-15,9-23,23-26s10-5,12-12,14-9,18-7,2,3,2,5c4,21,16,35,36,42,7,2,12,6,13,15s1,10,3,15c7,15,3,28-4,42s-7,15-3,24,4,6,10,6h22c22,2,41,10,54,30,3,4,7,5,10,4s8,3,8,8,3,8,5,11,16,25,12,41a25,25,0,0,0-1,9c1,8-3,10-10,11s-16,7-25,3-4,1-3,4Z" transform="translate(-493 -121)"/><text class="cls-2" transform="translate(241 581)">新疆</text><rect class="cls-1" x="624" y="406" width="906" height="91.4" rx="12" ry="12"/><text class="cls-2" transform="translate(934 469)">不得超过30桌</text><rect class="cls-7" x="624" y="525" width="906" height="91.4" rx="12" ry="12"/><text class="cls-6" transform="translate(836 592)">婚礼用车不得超过8辆</text><path class="cls-3" d="M1115,1140c-6,3-8,7-6,13s-2,7-5,8-7,3-9-2a20,20,0,0,0-8-9c-3-2-6-1-8,0s-4,4-3,7v2c0,4,0,10-4,12s-7-2-10-4l-5-4c-11-14-29-12-43-4s-19,13-31,11-5,2-6,4c-8,17-24,18-40,18s-19-8-19-20a4,4,0,0,0,0-1v-4c-12,2-5-14-14-15s-22-7-33-12-20-6-29,8l-6,11c-2,2-3,7-7,3s-7-5-3-10h1c2-3,8-5,5-10s-8-4-13-4l-18,2c-9,0-18,1-25-7s-10-3-16-2-7,0-9-3-13-14-23-16-3-1-3-2-8-10-14-13-10-10-13-17-5-8-10-6-5,1-6-1c-7-15-23-21-32-35-1-2-4-4-4-7s-5-8-10-9-7,3-9,6-7,5-10,1-16-17-24-25-6-11-10-15-6-6-10-6-11-6-10-13a27,27,0,0,1,3-9c3-5,5-9,1-15s2-8,1-12c2,6,5,11,12,9s13-13,10-20l-3-6c-9-14-5-27,4-40s3-2,5-2h9c10,1,13,0,15-10s7-10,10-15,7,0,10,1c16,6,33,11,50,2s12-5,16,4,7,6,12,7,24,2,36,0,10,1,16,1,15-3,23-6,35-5,52-10,24,5,34,14,6,18,2,22-6,11-2,18a17,17,0,0,1,0,20c-11,15-2,26,7,38l9,10c3,3,6,4,10,2s10-5,17,5,9,8,14,11,28,14,44,16,13,3,18,1,19,2,24,11,9,11,11,18,8,7,13,8,9-1,10-7,2-5,5-5,3,2,3,4,13,5,14,0,12-12,6-21c7,6,17,8,18,19s2,4,3,5,11,14,10,24,2,11,4,16,6,15,3,23a8,8,0,0,0,0,6c7,11,1,20-6,28l-2,3Z" transform="translate(-493 -121)"/><text class="cls-2" transform="translate(264 914)">西藏</text><path class="cls-8" d="M916,1341c-1-13-12-9-19-13,11,1,20-8,31-7s4,0,4-2,6-14,6-22,3-20,12-28,9-1,12,1,6,6,3,11a32,32,0,0,0-5,19c0,6,2,10,9,9s9,3,8,9-2,10-2,15-3,6-7,4-11,0-12,7,0,14,0,20,2,5,5,6,6,6,6,11-3,7-8,7-9,7-8,14-5-1-6-3-9-10-16-13-4-5-2-9,4-10-3-13h0c1-2,0-3-2-3h0v-15c0-3-1-6-5-6Z" transform="translate(-493 -121)"/><text class="cls-2" transform="translate(396 1235)">宁夏</text><rect class="cls-1" x="624" y="1126" width="906" height="91.4" rx="12" ry="12"/><text class="cls-2" transform="translate(688 1189)">不得超过10桌/双方合办不得超过15桌</text><rect class="cls-5" x="624" y="1239" width="906" height="91.4" rx="12" ry="12"/><text class="cls-6" transform="translate(803 1306)">礼金限定在每人300元以内</text><rect class="cls-5" x="624" y="1352" width="906" height="91.4" rx="12" ry="12"/><text class="cls-6" transform="translate(874 1419)">彩礼不得高于5万元</text><text class="cls-9" transform="translate(99 63)">违规操办婚丧喜庆事宜地方性政策<tspan x="0" y="86">（八项规定实施以后）</tspan></text></svg>